{
  "accessors": [
    {
      "bufferView": 2,
      "componentType": 5126,
      "count": 23770,
      "max": [
        29.551362991333008,
        87.47234344482422,
        17.44992446899414
      ],
      "min": [
        -26.0155029296875,
        -0.005877000279724598,
        -33.49065017700195
      ],
      "type": "VEC3"
    },
    {
      "bufferView": 2,
      "byteOffset": 285240,
      "componentType": 5126,
      "count": 23770,
      "max": [
        0.9999808669090271,
        0.9999346733093262,
        0.9999924302101135
      ],
      "min": [
        -0.9999951124191284,
        -1.0,
        -0.9998993277549744
      ],
      "type": "VEC3"
    },
    {
      "bufferView": 1,
      "componentType": 5126,
      "count": 23770,
      "max": [
        0.9901939630508423,
        0.9934660196304321
      ],
      "min": [
        0.010881000198423862,
        0.010166168212890625
      ],
      "type": "VEC2"
    },
    {
      "bufferView": 1,
      "byteOffset": 190160,
      "componentType": 5126,
      "count": 23770,
      "max": [
        0.9901939630508423,
        0.9934660196304321
      ],
      "min": [
        0.010881000198423862,
        0.010166168212890625
      ],
      "type": "VEC2"
    },
    {
      "bufferView": 1,
      "byteOffset": 380320,
      "componentType": 5126,
      "count": 23770,
      "max": [
        0.9901939630508423,
        0.9934660196304321
      ],
      "min": [
        0.010881000198423862,
        0.010166168212890625
      ],
      "type": "VEC2"
    },
    {
      "bufferView": 1,
      "byteOffset": 570480,
      "componentType": 5126,
      "count": 23770,
      "max": [
        0.9901939630508423,
        0.9934660196304321
      ],
      "min": [
        0.010881000198423862,
        0.010166168212890625
      ],
      "type": "VEC2"
    },
    {
      "bufferView": 0,
      "componentType": 5125,
      "count": 132126,
      "type": "SCALAR"
    }
  ],
  "asset": {
    "extras": {
      "author": "Al-Deezel (https://sketchfab.com/moroahmedadel)",
      "license": "CC-BY-4.0 (http://creativecommons.org/licenses/by/4.0/)",
      "source": "https://sketchfab.com/3d-models/cartoon-balloons-a54559c7cffa425686f47bb81c6a328f",
      "title": "cartoon balloons"
    },
    "generator": "Sketchfab-15.18.0",
    "version": "2.0"
  },
  "bufferViews": [
    {
      "buffer": 0,
      "byteLength": 528504,
      "name": "floatBufferViews",
      "target": 34963
    },
    {
      "buffer": 0,
      "byteLength": 760640,
      "byteOffset": 528504,
      "byteStride": 8,
      "name": "floatBufferViews",
      "target": 34962
    },
    {
      "buffer": 0,
      "byteLength": 570480,
      "byteOffset": 1289144,
      "byteStride": 12,
      "name": "floatBufferViews",
      "target": 34962
    }
  ],
  "buffers": [
    {
      "byteLength": 1859624,
      "uri": "scene.bin"
    }
  ],
  "extensionsRequired": [
    "KHR_materials_pbrSpecularGlossiness"
  ],
  "extensionsUsed": [
    "KHR_materials_pbrSpecularGlossiness"
  ],
  "images": [
    {
      "uri": "textures/material_0_diffuse.png"
    },
    {
      "uri": "textures/material_0_specularGlossiness.png"
    },
    {
      "uri": "textures/material_0_occlusion.png"
    }
  ],
  "materials": [
    {
      "doubleSided": true,
      "extensions": {
        "KHR_materials_pbrSpecularGlossiness": {
          "diffuseFactor": [
            1.0,
            1.0,
            1.0,
            1.0
          ],
          "diffuseTexture": {
            "index": 0
          },
          "glossinessFactor": 1.0,
          "specularFactor": [
            1.0,
            1.0,
            1.0
          ],
          "specularGlossinessTexture": {
            "index": 1
          }
        }
      },
      "name": "material_0",
      "occlusionTexture": {
        "index": 2
      }
    }
  ],
  "meshes": [
    {
      "name": "Object_0",
      "primitives": [
        {
          "attributes": {
            "NORMAL": 1,
            "POSITION": 0,
            "TEXCOORD_0": 2,
            "TEXCOORD_1": 3,
            "TEXCOORD_2": 4,
            "TEXCOORD_3": 5
          },
          "indices": 6,
          "material": 0,
          "mode": 4
        }
      ]
    }
  ],
  "nodes": [
    {
      "children": [
        1
      ],
      "matrix": [
        1.0,
        0.0,
        0.0,
        0.0,
        0.0,
        2.220446049250313e-16,
        -1.0,
        0.0,
        0.0,
        1.0,
        2.220446049250313e-16,
        0.0,
        0.0,
        0.0,
        0.0,
        1.0
      ],
      "name": "Sketchfab_model"
    },
    {
      "children": [
        2
      ],
      "name": "root"
    },
    {
      "children": [
        3
      ],
      "matrix": [
        1.0,
        0.0,
        0.0,
        0.0,
        0.0,
        2.220446049250313e-16,
        1.0,
        0.0,
        0.0,
        -1.0,
        2.220446049250313e-16,
        0.0,
        0.0,
        0.0,
        0.0,
        1.0
      ],
      "name": "GLTF_SceneRootNode"
    },
    {
      "children": [
        4
      ],
      "matrix": [
        0.009999999776482582,
        0.0,
        0.0,
        0.0,
        0.0,
        0.009999999776482582,
        0.0,
        0.0,
        0.0,
        0.0,
        0.009999999776482582,
        0.0,
        0.0,
        0.0,
        0.0,
        1.0
      ],
      "name": "RootNode.0_0"
    },
    {
      "children": [
        5
      ],
      "name": "group_of_balloons.1_1"
    },
    {
      "mesh": 0,
      "name": "Object_5"
    }
  ],
  "samplers": [
    {
      "magFilter": 9729,
      "minFilter": 9987,
      "wrapS": 10497,
      "wrapT": 10497
    }
  ],
  "scene": 0,
  "scenes": [
    {
      "name": "Sketchfab_Scene",
      "nodes": [
        0
      ]
    }
  ],
  "textures": [
    {
      "sampler": 0,
      "source": 0
    },
    {
      "sampler": 0,
      "source": 1
    },
    {
      "sampler": 0,
      "source": 2
    }
  ]
}
