{
    "asset" : {
        "generator" : "Khronos glTF Blender I/O v3.4.50",
        "version" : "2.0"
    },
    "scene" : 0,
    "scenes" : [
        {
            "name" : "Scene",
            "nodes" : [
                0
            ]
        }
    ],
    "nodes" : [
        {
            "mesh" : 0,
            "name" : "bath tub",
            "rotation" : [
                0,
                0.7071068286895752,
                0,
                0.7071067094802856
            ]
        }
    ],
    "materials" : [
        {
            "doubleSided" : true,
            "name" : "Material.001",
            "pbrMetallicRoughness" : {
                "baseColorFactor" : [
                    0.800000011920929,
                    0.800000011920929,
                    0.800000011920929,
                    1
                ],
                "metallicFactor" : 0.4876033067703247,
                "roughnessFactor" : 0.1280989944934845
            }
        }
    ],
    "meshes" : [
        {
            "name" : "Object_0.004",
            "primitives" : [
                {
                    "attributes" : {
                        "POSITION" : 0,
                        "TEXCOORD_0" : 1,
                        "NORMAL" : 2
                    },
                    "indices" : 3,
                    "material" : 0
                }
            ]
        }
    ],
    "accessors" : [
        {
            "bufferView" : 0,
            "componentType" : 5126,
            "count" : 1068,
            "max" : [
                1.259310007095337,
                0.41672274470329285,
                3.4021739959716797
            ],
            "min" : [
                -1.2734448909759521,
                -1.7332178354263306,
                -3.350421190261841
            ],
            "type" : "VEC3"
        },
        {
            "bufferView" : 1,
            "componentType" : 5126,
            "count" : 1068,
            "type" : "VEC2"
        },
        {
            "bufferView" : 2,
            "componentType" : 5126,
            "count" : 1068,
            "type" : "VEC3"
        },
        {
            "bufferView" : 3,
            "componentType" : 5123,
            "count" : 1614,
            "type" : "SCALAR"
        }
    ],
    "bufferViews" : [
        {
            "buffer" : 0,
            "byteLength" : 12816,
            "byteOffset" : 0,
            "target" : 34962
        },
        {
            "buffer" : 0,
            "byteLength" : 8544,
            "byteOffset" : 12816,
            "target" : 34962
        },
        {
            "buffer" : 0,
            "byteLength" : 12816,
            "byteOffset" : 21360,
            "target" : 34962
        },
        {
            "buffer" : 0,
            "byteLength" : 3228,
            "byteOffset" : 34176,
            "target" : 34963
        }
    ],
    "buffers" : [
        {
            "byteLength" : 37404,
            "uri" : "data:application/octet-stream;base64,"
        }
    ]
}
