{"extensionsUsed" : ["KHR_materials_pbrSpecularGlossiness"], "extensionsRequired" : ["KHR_materials_pbrSpecularGlossiness"], "accessors" : [{"bufferView" : 0, "byteOffset" : 0, "componentType" : 5123, "count" : 17490, "type" : "SCALAR", "max" : [14639], "min" : [0]}, {"bufferView" : 1, "byteOffset" : 0, "componentType" : 5126, "count" : 14640, "type" : "VEC3", "max" : [9.599735260009766, 61.148040771484375, 10.197905540466309], "min" : [-10.274346351623535, 0, -8.39340591430664], "name" : "POSITION"}, {"bufferView" : 1, "byteOffset" : 12, "componentType" : 5126, "count" : 14640, "type" : "VEC4", "max" : [0.9999973177909851, 0.9993956089019775, 0.9994792342185974, 0], "min" : [-1.0000033378601074, -0.983386754989624, -0.9998031854629517, 0], "name" : "TANGENT"}, {"bufferView" : 1, "byteOffset" : 28, "componentType" : 5126, "count" : 14640, "type" : "VEC3", "max" : [0.999995768070221, 0.9985781311988831, 0.9998689889907837], "min" : [-0.9990921020507812, -1.0000044107437134, -0.9995782971382141], "name" : "NORMAL"}, {"bufferView" : 1, "byteOffset" : 40, "componentType" : 5126, "count" : 14640, "type" : "VEC2", "max" : [0.9797850251197815, 0.9895769953727722], "min" : [0.015620999969542027, 0.012890994548797607], "name" : "TEXCOORD_0"}], "asset" : {"generator" : "Aspose.3D 23.4.0", "version" : "2.0"}, "buffers" : [{"uri" : "data:application/octet-stream;base64,", "byteLength" : 874508}], "bufferViews" : [{"buffer" : 0, "byteOffset" : 0, "byteLength" : 34980, "target" : 34963}, {"buffer" : 0, "byteOffset" : 34984, "byteLength" : 839520, "byteStride" : 48, "target" : 34962}], "images" : [{"uri" : "data:image/png;base64,"}, {"uri" : "data:image/png;base64,"}, {"uri" : "data:image/png;base64,"}], "materials" : [{"name" : "", "extensions" : {"KHR_materials_pbrSpecularGlossiness" : {"diffuseFactor" : [1, 1, 1, 1], "diffuseTexture" : {"index" : 1, "texCoord" : 0}, "specularFactor" : [1, 1, 1], "glossinessFactor" : 1, "specularGlossinessTexture" : {"index" : 2, "texCoord" : 0, "scale" : 1}}}, "pbrMetallicRoughness" : {"baseColorFactor" : [1, 1, 1, 1], "metallicFactor" : 1, "roughnessFactor" : 1}, "occlusionTexture" : {"index" : 0, "texCoord" : 0, "strength" : 1}, "emissiveFactor" : [0, 0, 0], "alphaMode" : "OPAQUE", "doubleSided" : true}], "meshes" : [{"primitives" : [{"attributes" : {"POSITION" : 1, "TANGENT" : 2, "NORMAL" : 3, "TEXCOORD_0" : 4}, "indices" : 0, "material" : 0, "mode" : 4}]}], "nodes" : [{"mesh" : 0, "name" : "balloon.1"}, {"children" : [0], "matrix" : [0.009999999776482582, 0, 0, 0, 0, 0.009999999776482582, 0, 0, 0, 0, 0.009999999776482582, 0, 0, 0, 0, 1], "name" : "RootNode.0"}], "samplers" : [{"magFilter" : 9729, "minFilter" : 9985, "wrapS" : 10497, "wrapT" : 10497}, {"magFilter" : 9729, "minFilter" : 9985, "wrapS" : 10497, "wrapT" : 10497}, {"magFilter" : 9729, "minFilter" : 9985, "wrapS" : 10497, "wrapT" : 10497}], "scene" : 0, "scenes" : [{"nodes" : [1]}], "textures" : [{"sampler" : 0, "source" : 0, "name" : ""}, {"sampler" : 1, "source" : 1, "name" : ""}, {"sampler" : 2, "source" : 2, "name" : ""}]}